<?xml version="1.0" encoding="UTF-8"?>
<svg width="1000" height="1000" viewBox="0 0 1000 1000" xmlns="http://www.w3.org/2000/svg">
  <!-- Background gradient -->
  <defs>
    <linearGradient id="skyGradient" x1="0" y1="0" x2="0" y2="1">
      <stop offset="0%" style="stop-color:#E75A94"/>
      <stop offset="33%" style="stop-color:#E75A94"/>
      <stop offset="100%" style="stop-color:#FFC0CB"/>
    </linearGradient>
  </defs>
  
  <!-- Background -->
  <rect width="100%" height="100%" fill="url(#skyGradient)"/>
  
  <!-- Stars -->
  <g fill="#FFF5EE">
    <rect x="50" y="50" width="10" height="10"/>
    <rect x="200" y="80" width="10" height="10"/>
    <rect x="350" y="30" width="10" height="10"/>
    <rect x="500" y="70" width="10" height="10"/>
    <rect x="650" y="40" width="10" height="10"/>
    <rect x="800" y="90" width="10" height="10"/>
    <rect x="900" y="60" width="10" height="10"/>
    <rect x="150" y="120" width="10" height="10"/>
    <rect x="300" y="150" width="10" height="10"/>
    <rect x="450" y="100" width="10" height="10"/>
    <rect x="600" y="130" width="10" height="10"/>
    <rect x="750" y="80" width="10" height="10"/>
    <rect x="850" y="140" width="10" height="10"/>
    <rect x="100" y="180" width="10" height="10"/>
    <rect x="250" y="200" width="10" height="10"/>
    <rect x="400" y="160" width="10" height="10"/>
    <rect x="550" y="190" width="10" height="10"/>
    <rect x="700" y="170" width="10" height="10"/>
    <rect x="950" y="110" width="10" height="10"/>
  </g>
  
  <!-- Pixel Clouds -->
  <g fill="#FFB6C1">
    <!-- Top layer clouds -->
    <rect x="100" y="300" width="200" height="20"/>
    <rect x="150" y="320" width="100" height="20"/>
    
    <rect x="400" y="250" width="180" height="20"/>
    <rect x="440" y="270" width="100" height="20"/>
    
    <rect x="700" y="280" width="160" height="20"/>
    <rect x="730" y="300" width="100" height="20"/>
    
    <!-- Middle layer clouds -->
    <rect x="200" y="400" width="220" height="25"/>
    <rect x="250" y="425" width="120" height="25"/>
    
    <rect x="500" y="380" width="200" height="25"/>
    <rect x="540" y="405" width="120" height="25"/>
    
    <!-- Bottom large cloud -->
    <rect x="300" y="600" width="400" height="40"/>
    <rect x="350" y="640" width="300" height="30"/>
    <rect x="400" y="670" width="200" height="20"/>
  </g>
</svg> 